<?xml version="1.0" standalone="no"?>
<svg viewBox="0 0 200 200" xmlns="http://www.w3.org/2000/svg">
  <path fill="#FFD6E8" d="M30.2,-56.2C38.4,-47.5,43.9,-38,50.9,-28.5C57.8,-19,66.1,-9.5,66.8,0.4C67.6,10.4,60.8,20.8,56.5,34.7C52.1,48.6,50.1,65.9,41.1,71.9C32.1,77.8,16,72.3,4.4,64.6C-7.2,57,-14.3,47.1,-27.1,43.3C-39.9,39.6,-58.4,42,-64,35.8C-69.6,29.6,-62.4,14.8,-63.7,-0.8C-65,-16.3,-74.8,-32.6,-69.9,-39.9C-64.9,-47.3,-45.2,-45.7,-31.1,-51C-17,-56.3,-8.5,-68.5,1.2,-70.6C11,-72.8,21.9,-64.9,30.2,-56.2Z" transform="translate(100 100)" />
</svg>
